<svg viewBox="0 0 14 14" fill="none" xmlns="http://www.w3.org/2000/svg" fit="" height="100%" width="100%" preserveAspectRatio="xMidYMid meet" focusable="false">
  <g clip-path="url(#clip0_3_78)">
    <path d="M6.80005 0C6.35822 0 6.00005 0.358172 6.00005 0.8V12.8C6.00005 13.2418 6.35822 13.6 6.80005 13.6C7.24188 13.6 7.60005 13.2418 7.60005 12.8V0.8C7.60005 0.358172 7.24188 0 6.80005 0Z" fill="white"></path>
    <path d="M0.234361 6.23431L6.23436 0.234315C6.54678 -0.078105 7.05332 -0.078105 7.36574 0.234315L13.3657 6.23431C13.4029 6.27146 13.436 6.31187 13.4652 6.35554C13.4944 6.39922 13.519 6.44532 13.5391 6.49385C13.5593 6.54238 13.5744 6.59241 13.5846 6.64393C13.5949 6.69545 13.6 6.74747 13.6 6.8C13.6 6.85253 13.5949 6.90455 13.5846 6.95607C13.5744 7.00759 13.5593 7.05762 13.5391 7.10615C13.519 7.15468 13.4944 7.20078 13.4652 7.24446C13.436 7.28813 13.4029 7.32854 13.3657 7.36569C13.3286 7.40283 13.2882 7.43599 13.2445 7.46517C13.2008 7.49436 13.1547 7.519 13.1061 7.5391C13.0576 7.55921 13.0076 7.57438 12.9561 7.58463C12.9046 7.59488 12.8526 7.6 12.8 7.6C12.7475 7.6 12.6955 7.59488 12.6439 7.58463C12.5924 7.57438 12.5424 7.55921 12.4939 7.5391C12.4454 7.519 12.3993 7.49436 12.3555 7.46517C12.3119 7.43599 12.2715 7.40283 12.2343 7.36569L6.23436 1.36568L6.80005 0.8L7.36574 1.36568L1.36573 7.36569C1.32859 7.40283 1.28818 7.43599 1.2445 7.46517C1.20083 7.49436 1.15472 7.519 1.10619 7.5391C1.05766 7.55921 1.00764 7.57438 0.956118 7.58463C0.904599 7.59488 0.852575 7.6 0.800046 7.6C0.747517 7.6 0.695493 7.59488 0.643974 7.58463C0.592454 7.57438 0.542429 7.55921 0.493899 7.5391C0.445369 7.519 0.399266 7.49436 0.35559 7.46517C0.311914 7.43599 0.271504 7.40283 0.234361 7.36569C0.197217 7.32854 0.164053 7.28813 0.13487 7.24446C0.105686 7.20078 0.0810438 7.15468 0.0609418 7.10615C0.0408405 7.05762 0.0256658 7.00759 0.0154178 6.95607C0.00516981 6.90455 4.57764e-05 6.85253 4.57764e-05 6.8C4.57764e-05 6.74747 0.00516981 6.69545 0.0154178 6.64393C0.0256658 6.59241 0.0408405 6.54238 0.0609418 6.49385C0.0810438 6.44532 0.105686 6.39922 0.13487 6.35554C0.164053 6.31187 0.197217 6.27146 0.234361 6.23431Z" fill="white"></path>
  </g>
  <defs>
    <clipPath id="clip0_3_78">
      <rect width="13.6001" height="13.6" fill="white"></rect>
    </clipPath>
  </defs>
</svg>
