<svg xmlns="http://www.w3.org/2000/svg" xmlns:xlink="http://www.w3.org/1999/xlink" width="24" height="24" viewBox="0 0 24 24" fill="none">
<path d="M6.3301 18.6666L4 18.6666C2.9 18.6666 2 17.7666 2 16.6666L2 5.66663C2 4.56663 2.9 3.66663 4 3.66663L20 3.66663C21.1 3.66663 22 4.56663 22 5.66663L22 16.6666C22 17.7666 21.1 18.6666 20 18.6666L12.8349 18.6666L7.0601 21.63C6.7301 21.8 6.3301 21.56 6.3301 21.19L6.3301 18.6666Z" stroke="rgba(255, 255, 255, 1)" stroke-width="1.4"    fill-rule="evenodd"  fill="#FFFFFF" >
</path>
<path    stroke="rgba(66, 71, 74, 1)" stroke-width="1.4"  stroke-linecap="round"  d="M8 7.91418L8 8.91418">
</path>
<path    stroke="rgba(66, 71, 74, 1)" stroke-width="1.4"  stroke-linecap="round"  d="M14.7803 8.41418L17.2298 6.99995">
</path>
<path    stroke="rgba(66, 71, 74, 1)" stroke-width="1.4"  stroke-linecap="round"  d="M14.7803 8.41418L17.2298 9.82842">
</path>
<path    stroke="rgba(66, 71, 74, 1)" stroke-width="1.4" stroke-linejoin="round" stroke-linecap="round"  d="M16 12.9142C16 12.9142 14.86 14.9142 12 14.9142C9.14 14.9142 8 12.9142 8 12.9142">
</path>
</svg>
