<svg xmlns="http://www.w3.org/2000/svg" xmlns:xlink="http://www.w3.org/1999/xlink" width="24" height="24" viewBox="0 0 24 24" fill="none"><g opacity="1"  transform="translate(0 0)  rotate(0)"><path d="M0 24L24 24L24 0L0 0L0 24Z"  ></path><g opacity="1"  transform="translate(2.000072479248047 2.0000076293945312)  rotate(0)"><path d="M-7.24792e-05 20L19.9999 20L19.9999 -7.62939e-06L-7.24792e-05 -7.62939e-06L-7.24792e-05 20Z"  ></path><g opacity="1"  transform="translate(-0.000072479248046875 1.6666259765625)  rotate(0)"><path  id="并集" style="fill:#9CA4AD; opacity:1;" d="M3.33324 15.8L1.50004 15.8C0.229783 15.8 -0.799962 14.7703 -0.799962 13.5L-0.799962 1.5C-0.799962 0.229745 0.229783 -0.8 1.50004 -0.8L18.5 -0.8C19.7703 -0.8 20.8 0.229745 20.8 1.5L20.8 13.5C20.8 14.7703 19.7703 15.8 18.5 15.8L9.83105 15.8L9.83105 15L10.1963 15.7118L4.42848 18.6716C3.55456 19.1086 2.53324 18.4785 2.53324 17.5098L2.53324 15L3.33324 15L3.33324 15.8ZM4.13324 14.2L4.13324 17.5098C4.13324 17.2891 3.90287 17.1456 3.69799 17.248L9.63777 14.2L18.5 14.2C18.8866 14.2 19.2 13.8866 19.2 13.5L19.2 1.5C19.2 1.1134 18.8866 0.8 18.5 0.8L1.50004 0.8C1.11344 0.8 0.800038 1.1134 0.800038 1.5L0.800038 13.5C0.800038 13.8866 1.11344 14.2 1.50004 14.2L3.33324 14.2L4.13324 14.2Z"></path><g opacity="1"  transform="translate(6 4.333366394042969)  rotate(0)"><path  id="直线 1" style="fill:#9CA4AD; opacity:1;" d="M0 -0.7C-0.386599 -0.7 -0.7 -0.386599 -0.7 0L-0.7 0.999977C-0.7 1.38658 -0.386599 1.69998 0 1.69998C0.386599 1.69998 0.7 1.38658 0.7 0.999977L0.7 0C0.7 -0.386599 0.386599 -0.7 0 -0.7Z"></path><path  id="直线 1" style="fill:#9CA4AD; opacity:1;" d="M8 -0.7C7.6134 -0.7 7.3 -0.386599 7.3 0L7.3 0.999977C7.3 1.38658 7.6134 1.69998 8 1.69998C8.3866 1.69998 8.7 1.38658 8.7 0.999977L8.7 0C8.7 -0.386599 8.3866 -0.7 8 -0.7Z"></path><path  id="路径 4" style="fill:#9CA4AD; opacity:1;" d="M8.60814 5.26078M8.60814 5.26078Q8.25442 5.88134 7.50241 6.46657Q6.02778 7.61414 4 7.61414Q1.97275 7.61414 0.498319 6.46713Q-0.253893 5.88197 -0.60807 5.26091L-0.608144 5.26078Q-0.642286 5.20088 -0.664085 5.13548Q-0.685885 5.07007 -0.694506 5.00167Q-0.703127 4.93326 -0.698237 4.86449Q-0.693348 4.79572 -0.675136 4.72923Q-0.656924 4.66273 -0.626089 4.60107Q-0.595254 4.5394 -0.552982 4.48494Q-0.51071 4.43048 -0.458624 4.38531Q-0.406539 4.34014 -0.346642 4.30599Q-0.286745 4.27185 -0.221338 4.25005Q-0.155932 4.22825 -0.0875289 4.21963Q-0.019126 4.21101 0.0496443 4.2159Q0.118415 4.22079 0.18491 4.239Q0.251405 4.25721 0.313069 4.28805Q0.374733 4.31888 0.429197 4.36116Q0.483661 4.40343 0.528832 4.45551Q0.574002 4.5076 0.608144 4.5675L0.608071 4.56737Q0.65148 4.64349 0.767563 4.78704Q1.02004 5.09926 1.35794 5.36212Q2.45318 6.21414 4 6.21414Q5.54722 6.21414 6.64259 5.36171Q6.98043 5.0988 7.2328 4.78659Q7.3487 4.64321 7.39186 4.5675Q7.426 4.5076 7.47117 4.45551Q7.51634 4.40343 7.5708 4.36116Q7.62527 4.31888 7.68693 4.28805Q7.74859 4.25721 7.81509 4.239Q7.88158 4.22079 7.95035 4.2159Q8.01912 4.21101 8.08753 4.21963Q8.15593 4.22825 8.22134 4.25005Q8.28675 4.27185 8.34664 4.30599Q8.40654 4.34014 8.45862 4.38531Q8.51071 4.43048 8.55298 4.48494Q8.59525 4.5394 8.62609 4.60107Q8.65692 4.66273 8.67513 4.72923Q8.69335 4.79572 8.69824 4.86449Q8.70312 4.93326 8.6945 5.00167Q8.68588 5.07007 8.66408 5.13548Q8.64228 5.20088 8.60814 5.26078Z"></path></g></g></g></g></svg>
