<svg xmlns="http://www.w3.org/2000/svg" xmlns:xlink="http://www.w3.org/1999/xlink" width="22" height="22" viewBox="0 0 22 22" fill="none">
  <path d="M15.15 11.9474C15.15 10.2074 13.74 8.79741 12 8.79741C10.26 8.79741 8.84998 10.2074 8.84998 11.9474C8.84998 13.6874 10.26 15.0974 12 15.0974C13.74 15.0974 15.15 13.6874 15.15 11.9474Z" stroke="#9CA4AD" stroke-width="1.4" stroke-linejoin="round"  >
  </path>
  <path     fill="#FFFFFF"  d="M3 11.9474L8.85001 11.9474">
  </path>
  <path    stroke="#9CA4AD" stroke-width="1.4" stroke-linejoin="round" stroke-linecap="round"  d="M3 11.9474L8.85001 11.9474">
  </path>
  <path     fill="#FFFFFF"  d="M15.15 11.9474L21 11.9474">
  </path>
  <path    stroke="#9CA4AD" stroke-width="1.4" stroke-linejoin="round" stroke-linecap="round"  d="M15.15 11.9474L21 11.9474">
  </path>
  <path   fill="#9CA4AD"  d="M5 20.2474L19 20.2474C19.718 20.2474 20.3 19.6653 20.3 18.9474L20.3 4.94737C20.3 4.2294 19.718 3.64737 19 3.64737L5 3.64737C4.28203 3.64737 3.7 4.2294 3.7 4.94737L3.7 18.9474C3.7 19.6653 4.28203 20.2474 5 20.2474ZM5 21.6474C3.50883 21.6474 2.3 20.4385 2.3 18.9474L2.3 4.94737C2.3 3.4562 3.50883 2.24737 5 2.24737L19 2.24737C20.4912 2.24737 21.7 3.4562 21.7 4.94737L21.7 18.9474C21.7 20.4385 20.4912 21.6474 19 21.6474L5 21.6474Z">
  </path>
</svg>
