<svg viewBox="0 0 14 14" fill="none" xmlns="http://www.w3.org/2000/svg" fit="" height="100%" width="100%" preserveAspectRatio="xMidYMid meet" focusable="false"><path d="M1.5001 2.39996V12.6C1.5001 12.9314 1.76873 13.2 2.1001 13.2H11.1001C11.4315 13.2 11.7001 12.9314 11.7001 12.6V2.39996C11.7001 2.06859 11.4315 1.79996 11.1001 1.79996H2.1001C1.76873 1.79996 1.5001 2.06859 1.5001 2.39996ZM2.7001 2.99996H10.5001V12H2.7001V2.99996Z" fill="currentColor"></path><path d="M6.00029 5.40003V9.30003C6.00029 9.33943 5.99645 9.37845 5.98876 9.41709C5.98107 9.45573 5.96968 9.49324 5.95461 9.52964C5.93953 9.56604 5.92104 9.60062 5.89915 9.63338C5.87726 9.66613 5.85238 9.69644 5.82451 9.7243C5.79664 9.75215 5.76633 9.77702 5.73357 9.79892C5.7008 9.8208 5.66622 9.83928 5.62981 9.85436C5.5934 9.86944 5.55588 9.88082 5.51723 9.88851C5.47858 9.89619 5.43956 9.90003 5.40015 9.90003C5.36074 9.90003 5.32172 9.89619 5.28307 9.88851C5.24442 9.88082 5.20689 9.86944 5.17048 9.85436C5.13408 9.83928 5.0995 9.8208 5.06673 9.79892C5.03396 9.77702 5.00365 9.75215 4.97579 9.7243C4.94792 9.69644 4.92304 9.66613 4.90115 9.63338C4.87926 9.60062 4.86077 9.56604 4.84569 9.52964C4.83061 9.49324 4.81923 9.45573 4.81154 9.41709C4.80385 9.37845 4.80001 9.33943 4.80001 9.30003V5.40003C4.80001 5.36063 4.80385 5.32161 4.81154 5.28297C4.81923 5.24433 4.83061 5.20682 4.84569 5.17042C4.86077 5.13402 4.87926 5.09944 4.90115 5.06669C4.92304 5.03393 4.94792 5.00362 4.97579 4.97576C5.00365 4.9479 5.03396 4.92303 5.06673 4.90115C5.0995 4.87926 5.13408 4.86078 5.17048 4.8457C5.20689 4.83062 5.24442 4.81924 5.28307 4.81156C5.32172 4.80387 5.36074 4.80003 5.40015 4.80003C5.43956 4.80003 5.47858 4.80387 5.51723 4.81156C5.55588 4.81924 5.5934 4.83062 5.62981 4.8457C5.66622 4.86078 5.7008 4.87926 5.73357 4.90115C5.76634 4.92303 5.79665 4.9479 5.82451 4.97576C5.85238 5.00362 5.87726 5.03393 5.89915 5.06669C5.92104 5.09944 5.93953 5.13402 5.95461 5.17042C5.96969 5.20682 5.98107 5.24433 5.98876 5.28297C5.99645 5.32161 6.00029 5.36063 6.00029 5.40003Z" fill="currentColor"></path><path d="M8.40019 5.40003V9.30003C8.40019 9.33943 8.39634 9.37845 8.38866 9.41709C8.38097 9.45573 8.36959 9.49324 8.35451 9.52964C8.33943 9.56604 8.32094 9.60062 8.29905 9.63338C8.27715 9.66613 8.25227 9.69644 8.22441 9.7243C8.19655 9.75215 8.16623 9.77702 8.13347 9.79892C8.1007 9.8208 8.06611 9.83928 8.02971 9.85436C7.9933 9.86944 7.95577 9.88082 7.91713 9.88851C7.87848 9.89619 7.83945 9.90003 7.80005 9.90003C7.76064 9.90003 7.72161 9.89619 7.68297 9.88851C7.64432 9.88082 7.60679 9.86944 7.57039 9.85436C7.53398 9.83928 7.49939 9.8208 7.46663 9.79892C7.43386 9.77702 7.40355 9.75215 7.37569 9.7243C7.34782 9.69644 7.32294 9.66613 7.30105 9.63338C7.27915 9.60062 7.26067 9.56604 7.24559 9.52964C7.23051 9.49324 7.21912 9.45573 7.21144 9.41709C7.20375 9.37845 7.19991 9.33943 7.19991 9.30003V5.40003C7.19991 5.36063 7.20375 5.32161 7.21144 5.28297C7.21912 5.24433 7.23051 5.20682 7.24559 5.17042C7.26067 5.13402 7.27915 5.09944 7.30105 5.06669C7.32294 5.03393 7.34782 5.00362 7.37569 4.97576C7.40355 4.9479 7.43386 4.92303 7.46663 4.90115C7.49939 4.87926 7.53398 4.86078 7.57039 4.8457C7.60679 4.83062 7.64432 4.81924 7.68297 4.81156C7.72161 4.80387 7.76064 4.80003 7.80005 4.80003C7.83945 4.80003 7.87848 4.80387 7.91713 4.81156C7.95577 4.81924 7.9933 4.83062 8.02971 4.8457C8.06611 4.86078 8.1007 4.87926 8.13347 4.90115C8.16623 4.92303 8.19655 4.9479 8.22441 4.97576C8.25227 5.00362 8.27715 5.03393 8.29905 5.06669C8.32094 5.09944 8.33943 5.13402 8.35451 5.17042C8.36959 5.20682 8.38097 5.24433 8.38866 5.28297C8.39634 5.32161 8.40019 5.36063 8.40019 5.40003Z" fill="currentColor"></path><path d="M0.600099 1.79999H12.6001C12.6395 1.79999 12.6785 1.80383 12.7172 1.81152C12.7558 1.8192 12.7933 1.83058 12.8297 1.84566C12.8661 1.86073 12.9007 1.87921 12.9335 1.9011C12.9662 1.92298 12.9965 1.94786 13.0244 1.97572C13.0523 2.00357 13.0771 2.03388 13.099 2.06664C13.1209 2.09939 13.1393 2.13396 13.1544 2.17036C13.1695 2.20676 13.1809 2.24428 13.1886 2.28292C13.1963 2.32155 13.2001 2.36057 13.2001 2.39997C13.2001 2.43936 13.1963 2.47838 13.1886 2.51702C13.1809 2.55566 13.1695 2.59317 13.1544 2.62957C13.1393 2.66597 13.1209 2.70054 13.099 2.7333C13.0771 2.76605 13.0523 2.79636 13.0244 2.82422C12.9965 2.85207 12.9662 2.87694 12.9335 2.89883C12.9007 2.92071 12.8661 2.9392 12.8297 2.95428C12.7933 2.96935 12.7558 2.98073 12.7172 2.98842C12.6785 2.9961 12.6395 2.99995 12.6001 2.99995H0.600099C0.560703 2.99995 0.521685 2.9961 0.483045 2.98842C0.444405 2.98073 0.406887 2.96935 0.370489 2.95428C0.334091 2.9392 0.299514 2.92071 0.266757 2.89883C0.234 2.87694 0.203693 2.85207 0.175835 2.82422C0.147978 2.79636 0.123105 2.76605 0.101217 2.7333C0.0793299 2.70054 0.0608478 2.66597 0.0457712 2.62957C0.0306952 2.59317 0.0193142 2.55566 0.0116282 2.51702C0.00394221 2.47838 9.91821e-05 2.43936 9.91821e-05 2.39997C9.91821e-05 2.36057 0.00394221 2.32155 0.0116282 2.28292C0.0193142 2.24428 0.0306952 2.20676 0.0457712 2.17036C0.0608478 2.13396 0.0793299 2.09939 0.101217 2.06664C0.123105 2.03388 0.147978 2.00357 0.175835 1.97572C0.203693 1.94786 0.234 1.92298 0.266757 1.9011C0.299514 1.87921 0.334091 1.86073 0.370489 1.84566C0.406887 1.83058 0.444405 1.8192 0.483045 1.81152C0.521685 1.80383 0.560703 1.79999 0.600099 1.79999Z" fill="currentColor"></path><path d="M3.67406 2.11157L4.66076 0.311567C4.76609 0.119424 4.96778 -2.28882e-05 5.1869 -2.28882e-05H8.03333C8.25428 -2.28882e-05 8.45735 0.121409 8.5619 0.316055L9.52878 2.11606C9.74349 2.51578 9.45394 2.99998 9.0002 2.99998H4.2002C3.74421 2.99998 3.45487 2.51143 3.67406 2.11157ZM4.72633 2.68839L4.2002 2.39998V1.79998H9.0002V2.39998L8.47163 2.68391L7.50476 0.883899L8.03333 0.599977V1.19998H5.1869V0.599977L5.71304 0.888387L4.72633 2.68839Z" fill="currentColor"></path></svg>