<svg viewBox="0 0 16 16" fill="none" xmlns="http://www.w3.org/2000/svg" fit="" height="100%" width="100%" preserveAspectRatio="xMidYMid meet" focusable="false"><g clip-path="url(#clip0_12_25)"><path d="M2.4714 7.5286L6.4714 11.5286L6 12L5.5286 11.5286L13.5286 3.5286C13.5595 3.49764 13.5932 3.47001 13.6296 3.44569C13.666 3.42137 13.7044 3.40083 13.7449 3.38408C13.7853 3.36732 13.827 3.35468 13.8699 3.34614C13.9128 3.3376 13.9562 3.33333 14 3.33333C14.0438 3.33333 14.0872 3.3376 14.1301 3.34614C14.173 3.35468 14.2147 3.36732 14.2551 3.38408C14.2956 3.40083 14.334 3.42137 14.3704 3.44569C14.4068 3.47001 14.4405 3.49764 14.4714 3.5286C14.5023 3.55954 14.53 3.59322 14.5543 3.62962C14.5786 3.66601 14.5992 3.70443 14.6159 3.74488C14.6326 3.78532 14.6453 3.82701 14.6539 3.86994C14.6624 3.91287 14.6667 3.95622 14.6667 4C14.6667 4.04377 14.6624 4.08713 14.6539 4.13006C14.6453 4.17299 14.6326 4.21468 14.6159 4.25512C14.5992 4.29556 14.5786 4.33398 14.5543 4.37038C14.53 4.40678 14.5023 4.44045 14.4714 4.4714L6.4714 12.4714C6.21106 12.7318 5.78895 12.7318 5.5286 12.4714L1.5286 8.47141C1.49764 8.44045 1.47001 8.40678 1.44569 8.37038C1.42137 8.33398 1.40083 8.29556 1.38408 8.25512C1.36732 8.21468 1.35468 8.17299 1.34614 8.13006C1.3376 8.08712 1.33333 8.04377 1.33333 8C1.33333 7.95622 1.3376 7.91287 1.34614 7.86994C1.35468 7.827 1.36732 7.78532 1.38408 7.74488C1.40083 7.70443 1.42137 7.66601 1.44569 7.62962C1.47001 7.59322 1.49764 7.55955 1.5286 7.5286C1.55954 7.49765 1.59322 7.47001 1.62962 7.44569C1.66601 7.42137 1.70443 7.40083 1.74488 7.38408C1.78532 7.36732 1.827 7.35468 1.86994 7.34614C1.91287 7.3376 1.95622 7.33333 2 7.33333C2.04377 7.33333 2.08712 7.3376 2.13006 7.34614C2.17299 7.35468 2.21468 7.36732 2.25512 7.38408C2.29556 7.40083 2.33398 7.42137 2.37038 7.44569C2.40678 7.47001 2.44045 7.49765 2.4714 7.5286Z" fill="currentColor"></path></g><defs><clipPath id="clip0_12_25"><rect width="16" height="16" fill="currentColor"></rect></clipPath></defs></svg>